<svg xmlns="http://www.w3.org/2000/svg" viewBox="0 0 1280 640">
  <defs>
    <clipPath id="b">
      <path d="M0 0h640v480H0z"/>
    </clipPath>
  </defs>
  <path fill="#00008B" d="M0 0h1280v640H0z"/>
  <g transform="scale(2.1333 1.3333)">
    <g id="c">
      <path id="d" fill="#fff" d="m0 0 100 50L0 100"/>
      <path id="e" fill="#f00" d="m0 0 60 30L0 60"/>
      <g id="f">
        <use xlink:href="#d"/>
        <path stroke="#fff" d="M0 0h100v50H0z"/>
      </g>
      <g id="g">
        <use xlink:href="#e"/>
        <path stroke="#f00" d="M0 0h60v30H0z"/>
      </g>
    </g>
    <g id="a">
      <use xlink:href="#f" transform="matrix(0 1.2 -1.2 0 120 0)"/>
      <use xlink:href="#g" transform="matrix(0 -1.2 1.2 0 120 120)"/>
    </g>
    <g clip-path="url(#b)">
      <path fill="#00008B" d="M0 0h640v480H0z"/>
      <use xlink:href="#a"/>
      <use xlink:href="#f" transform="matrix(1.2 0 0 1.2 120 120)"/>
      <use xlink:href="#g" transform="matrix(-1.2 0 0 -1.2 120 0)"/>
    </g>
    <g fill="#fff">
      <path d="M180 340.8 218.1 353l15 36.1 9.9-37.6 38.1-13.4-29.6-25.3 5.2-38.7-29.6 26.4-33.3-21.7 12.1 37.5zm-30 74.5 1.7 0.2 1.5 0.9 1.3 1.3 0.9 1.5 0.2 1.7-0.2 1.7-0.9 1.5-1.3 1.3-1.5 0.9-1.7 0.2-1.7-0.2-1.5-0.9-1.3-1.3-0.9-1.5-0.3-1.7 0.3-1.7 0.9-1.5 1.3-1.3 1.5-0.9 1.7-0.2zM299 329.4l1.7 0.3 1.4 0.8 1.1 1.4 0.7 1.5 0.1 1.7-0.3 1.7-0.9 1.4-1.4 1.1-1.6 0.7-1.7 0.1-1.7-0.3-1.4-0.8-1.1-1.3-0.7-1.5-0.1-1.8 0.3-1.7 0.9-1.4 1.4-1.1 1.6-0.7 1.7-0.1zm-39.7-177l5.2 3.7 6.2-1.9-3.8 5.2 3.7 5.3-6.1-2.2-3.8 5.2 0.4-6.4-6.1-2.2 6.2-1.9 0.4-6.4zm15.8 14.7 5.8 1.8 3.8-4.8 0.9 6.1 5.8 1.8-5.5 2.5 0.9 6.1-3.8-4.9-5.5 2.5 3.8-4.8-0.9-6.1zm15.1 27.5 6.1 0 2.1-5.7 2.1 5.7 6.1 0-4.8 3.8 2.1 5.8-5.5-2.8-4.8 3.8 2.1-5.8-5.5-2.8zm10 24.3 5.5-2.4 0-6.1 3.6 5-2.3 5.5 5.1-3.1 3.6 5-1.6-5.9 5.1-3.1-6-0.6-1.6-5.9-2.3 5.5-6-0.6 3.6 5-3.7 5.1zm-5.8 21 4-4.3-3.5-5 6 0.8 4-4.3 0.2 5.9 6 0.8-5.7 2.1 0.2 5.9-3.5-5-5.7 2.1z"/>
    </g>
  </g>
  <g fill="#fff">
    <path d="m690 145 30 35 37.5-22.5-15 40 35 30-42.5 5 5 40-30-35-40 5 25-35-5-22.5zM690 450l30 35 37.5-22.5-15 40 35 30-42.5 5 5 40-30-35-40 5 25-35-5-22.5zM830 310l30 35 37.5-22.5-15 40 35 30-42.5 5 5 40-30-35-40 5 25-35-5-22.5zM1030 280l30 35 37.5-22.5-15 40 35 30-42.5 5 5 40-30-35-40 5 25-35-5-22.5zM970 140l30 35 37.5-22.5-15 40 35 30-42.5 5 5 40-30-35-40 5 25-35-5-22.5zM970 435l30 35 37.5-22.5-15 40 35 30-42.5 5 5 40-30-35-40 5 25-35-5-22.5z"/>
  </g>
</svg> 